<svg width="24" height="22" viewBox="0 0 24 22" fill="none" xmlns="http://www.w3.org/2000/svg">
<path d="M2.63738 4.67653C2.2858 4.81716 2.00453 5.23907 2.00453 5.61074V8.9458C2.00453 9.49829 2.45657 9.95033 3.00906 9.95033H21.0905C21.643 9.95033 22.095 9.49829 22.095 8.9458V5.61074C22.095 5.23907 21.8138 4.81716 21.4622 4.67653L12.4215 1.06027C12.2206 0.97991 11.879 0.97991 11.6781 1.06027L6.81619 3.00905" stroke="white" stroke-width="1.5" stroke-miterlimit="10" stroke-linecap="round" stroke-linejoin="round"/>
<path d="M22.095 21H2.00453V17.9865C2.00453 17.434 2.45657 16.9819 3.00906 16.9819H21.0905C21.643 16.9819 22.095 17.434 22.095 17.9865V21Z" stroke="white" stroke-width="1.5" stroke-miterlimit="10" stroke-linecap="round" stroke-linejoin="round"/>
<path d="M4.01358 16.9819V9.9502" stroke="white" stroke-width="1.5" stroke-miterlimit="10" stroke-linecap="round" stroke-linejoin="round"/>
<path d="M8.03168 16.9819V9.9502" stroke="white" stroke-width="1.5" stroke-miterlimit="10" stroke-linecap="round" stroke-linejoin="round"/>
<path d="M12.0498 16.9819V9.9502" stroke="white" stroke-width="1.5" stroke-miterlimit="10" stroke-linecap="round" stroke-linejoin="round"/>
<path d="M16.0679 16.9819V9.9502" stroke="white" stroke-width="1.5" stroke-miterlimit="10" stroke-linecap="round" stroke-linejoin="round"/>
<path d="M20.086 16.9819V9.9502" stroke="white" stroke-width="1.5" stroke-miterlimit="10" stroke-linecap="round" stroke-linejoin="round"/>
<path d="M1 21H23.0995" stroke="white" stroke-width="1.5" stroke-miterlimit="10" stroke-linecap="round" stroke-linejoin="round"/>
<path d="M12.0498 7.43887C12.8819 7.43887 13.5566 6.76426 13.5566 5.93208C13.5566 5.0999 12.8819 4.42529 12.0498 4.42529C11.2176 4.42529 10.543 5.0999 10.543 5.93208C10.543 6.76426 11.2176 7.43887 12.0498 7.43887Z" stroke="white" stroke-width="1.5" stroke-miterlimit="10" stroke-linecap="round" stroke-linejoin="round"/>
</svg>
