<svg width="16" height="19" viewBox="0 0 16 19" fill="none" xmlns="http://www.w3.org/2000/svg">
<path d="M14.6 5.25V13.75C14.6 17.15 13.75 18 10.35 18H5.25C1.85 18 1 17.15 1 13.75V5.25C1 1.85 1.85 1 5.25 1H10.35C13.75 1 14.6 1.85 14.6 5.25Z" stroke="white" stroke-linecap="round" stroke-linejoin="round"/>
<path d="M9.49999 3.9751H6.09999" stroke="white" stroke-linecap="round" stroke-linejoin="round"/>
<path d="M7.79994 15.5349C8.52757 15.5349 9.11748 14.945 9.11748 14.2174C9.11748 13.4898 8.52757 12.8999 7.79994 12.8999C7.0723 12.8999 6.48244 13.4898 6.48244 14.2174C6.48244 14.945 7.0723 15.5349 7.79994 15.5349Z" stroke="white" stroke-linecap="round" stroke-linejoin="round"/>
</svg>
