<svg width="19" height="18" viewBox="0 0 19 18" fill="none" xmlns="http://www.w3.org/2000/svg">
<path d="M1 9.16846H15.45" stroke="white" stroke-width="1.5" stroke-miterlimit="10" stroke-linecap="round" stroke-linejoin="round"/>
<path d="M8.429 16.3H4.21303C1.64603 16.3 1 15.6626 1 13.1296V7.18804C1 4.89308 1.5355 4.15358 3.55 4.03458C3.754 4.02608 3.97503 4.01758 4.21303 4.01758H12.237C14.804 4.01758 15.45 4.65508 15.45 7.18804V13.2655C15.4245 15.688 14.7615 16.3 12.237 16.3" stroke="white" stroke-width="1.5" stroke-linecap="round" stroke-linejoin="round"/>
<path d="M18 4.1705V10.112C18 12.407 17.4645 13.1465 15.45 13.2655V7.188C15.45 4.655 14.804 4.0175 12.237 4.0175H4.21303C3.97503 4.0175 3.754 4.026 3.55 4.0345C3.5755 1.612 4.23853 1 6.76303 1H14.787C17.354 1 18 1.6375 18 4.1705Z" stroke="white" stroke-width="1.5" stroke-linecap="round" stroke-linejoin="round"/>
<path d="M3.7625 13.5884H5.22447" stroke="white" stroke-width="1.5" stroke-miterlimit="10" stroke-linecap="round" stroke-linejoin="round"/>
<path d="M7.04297 13.5884H9.96699" stroke="white" stroke-width="1.5" stroke-miterlimit="10" stroke-linecap="round" stroke-linejoin="round"/>
</svg>
