<svg width="19" height="20" viewBox="0 0 19 20" fill="none" xmlns="http://www.w3.org/2000/svg">
<path d="M18 4.4V6.457C18 7.8 17.15 8.65 15.807 8.65H12.9V2.7085C12.9 1.765 13.6735 1 14.617 1C15.5435 1.0085 16.3935 1.3825 17.0055 1.9945C17.6175 2.615 18 3.465 18 4.4Z" stroke="white" stroke-width="1.5" stroke-miterlimit="10" stroke-linecap="round" stroke-linejoin="round"/>
<path d="M6.95 10.3582H9.5" stroke="white" stroke-width="1.5" stroke-linecap="round" stroke-linejoin="round"/>
<path d="M6.95 6.95825H9.5" stroke="white" stroke-width="1.5" stroke-linecap="round" stroke-linejoin="round"/>
<path d="M1 8.65V17.15C1 17.8555 1.799 18.255 2.36 17.83L3.8135 16.742C4.1535 16.487 4.6295 16.521 4.9355 16.827L6.3465 18.2465C6.678 18.578 7.222 18.578 7.5535 18.2465L8.9815 16.8185C9.279 16.521 9.755 16.487 10.0865 16.742L11.54 17.83C12.101 18.2465 12.9 17.847 12.9 17.15V2.7C12.9 1.765 13.665 1 14.6 1H5.25H4.4C1.85 1 1 2.5215 1 4.4V5.25" stroke="white" stroke-width="1.5" stroke-miterlimit="10" stroke-linecap="round" stroke-linejoin="round"/>
<path d="M4.39668 10.3501H4.40432" stroke="white" stroke-width="1.5" stroke-linecap="round" stroke-linejoin="round"/>
<path d="M4.39533 6.94995H4.40297" stroke="white" stroke-width="1.5" stroke-linecap="round" stroke-linejoin="round"/>
</svg>
