<svg width="17" height="19" viewBox="0 0 17 19" fill="none" xmlns="http://www.w3.org/2000/svg">
<path d="M15.8604 8.59906C15.8604 12.6769 12.9 16.4963 8.85553 17.6137C8.58033 17.6888 8.28012 17.6888 8.00493 17.6137C3.9604 16.4963 1 12.6769 1 8.59906V4.93814C1 4.25433 1.51704 3.47879 2.15915 3.22028L6.80409 1.31897C7.84649 0.893676 9.02231 0.893676 10.0647 1.31897L14.7096 3.22028C15.3434 3.47879 15.8688 4.25433 15.8688 4.93814L15.8604 8.59906Z" stroke="white" stroke-width="1.5" stroke-linecap="round" stroke-linejoin="round"/>
<path d="M8.43023 9.74973C9.35138 9.74973 10.0981 9.00304 10.0981 8.0819C10.0981 7.16078 9.35138 6.41406 8.43023 6.41406C7.50909 6.41406 6.7624 7.16078 6.7624 8.0819C6.7624 9.00304 7.50909 9.74973 8.43023 9.74973Z" stroke="white" stroke-width="1.5" stroke-miterlimit="10" stroke-linecap="round" stroke-linejoin="round"/>
<path d="M8.43023 9.74976V12.2515" stroke="white" stroke-width="1.5" stroke-miterlimit="10" stroke-linecap="round" stroke-linejoin="round"/>
</svg>
