<svg width="24" height="22" viewBox="0 0 24 22" fill="none" xmlns="http://www.w3.org/2000/svg">
<path d="M15.3787 11.0001C15.3787 9.24142 13.9591 7.82178 12.2005 7.82178C10.4418 7.82178 9.02216 9.24142 9.02216 11.0001C9.02216 12.7587 10.4418 14.1784 12.2005 14.1784C12.6348 14.1784 13.0586 14.0936 13.44 13.9241" stroke="white" stroke-width="2" stroke-miterlimit="10" stroke-linecap="round" stroke-linejoin="round"/>
<path d="M6.77708 20.09L7.93186 20.7575C8.76881 21.2554 9.84943 20.9588 10.3474 20.1218L10.4639 19.9205C11.4174 18.2572 12.9854 18.2572 13.9495 19.9205L14.066 20.1218C14.5639 20.9588 15.6446 21.2554 16.4815 20.7575L18.3143 19.7086C19.2784 19.1577 19.6068 17.9182 19.0559 16.9647C18.0919 15.3014 18.8758 13.9453 20.7934 13.9453C21.8952 13.9453 22.8063 13.0448 22.8063 11.9324V10.0678C22.8063 8.96599 21.9058 8.05484 20.7934 8.05484C19.7234 8.05484 19.003 7.63107 18.7487 6.96363C18.5474 6.44451 18.6322 5.76647 19.0559 5.03547C19.6068 4.07138 19.2784 2.84244 18.3143 2.29154L17.4562 1.8042" stroke="white" stroke-width="2" stroke-miterlimit="10" stroke-linecap="round" stroke-linejoin="round"/>
<path d="M13.9379 2.07946C12.9844 3.74276 11.4165 3.74276 10.4524 2.07946L10.3359 1.87816C9.84852 1.04121 8.7679 0.744572 7.93095 1.24251L6.09813 2.29134C5.13405 2.84225 4.80562 4.08178 5.35653 5.04586C6.32061 6.69858 5.53663 8.05465 3.61906 8.05465C2.51725 8.05465 1.60614 8.95512 1.60614 10.0675V11.9321C1.60614 13.0339 2.50666 13.945 3.61906 13.945C5.53663 13.945 6.32061 15.3011 5.35653 16.9644" stroke="white" stroke-width="2" stroke-miterlimit="10" stroke-linecap="round" stroke-linejoin="round"/>
</svg>
