<svg width="17" height="17" viewBox="0 0 17 17" fill="none" xmlns="http://www.w3.org/2000/svg">
<path d="M11.7068 16.088C11.5322 16.088 11.3576 16.0237 11.2197 15.8859C10.9532 15.6194 10.9532 15.1783 11.2197 14.9118L15.8235 10.308C16.09 10.0415 16.5311 10.0415 16.7976 10.308C17.064 10.5745 17.064 11.0156 16.7976 11.2821L12.1938 15.8859C12.0559 16.0145 11.8813 16.088 11.7068 16.088Z" fill="white"/>
<path d="M16.3108 11.4753H0.689189C0.312432 11.4753 0 11.1629 0 10.7861C0 10.4094 0.312432 10.0969 0.689189 10.0969H16.3108C16.6876 10.0969 17 10.4094 17 10.7861C17 11.1629 16.6876 11.4753 16.3108 11.4753Z" fill="white"/>
<path d="M0.688681 5.97987C0.514086 5.97987 0.339492 5.91554 0.201654 5.7777C-0.0648325 5.51122 -0.0648325 5.07014 0.201654 4.80365L4.80544 0.199865C5.07192 -0.0666216 5.513 -0.0666216 5.77949 0.199865C6.04598 0.466351 6.04598 0.907433 5.77949 1.17392L1.17571 5.7777C1.04706 5.90635 0.863275 5.97987 0.688681 5.97987Z" fill="white"/>
<path d="M16.3108 5.9797H0.689189C0.312432 5.9797 0 5.66726 0 5.29051C0 4.91375 0.312432 4.60132 0.689189 4.60132H16.3108C16.6876 4.60132 17 4.91375 17 5.29051C17 5.66726 16.6876 5.9797 16.3108 5.9797Z" fill="white"/>
</svg>
