<svg width="87" height="87" viewBox="0 0 87 87" fill="none" xmlns="http://www.w3.org/2000/svg">
<path d="M43.5 0.583252C19.81 0.583252 0.583332 19.8099 0.583332 43.4999C0.583332 67.1899 19.81 86.4166 43.5 86.4166C67.19 86.4166 86.4167 67.1899 86.4167 43.4999C86.4167 19.8099 67.19 0.583252 43.5 0.583252ZM43.5 13.4583C50.6242 13.4583 56.375 19.2091 56.375 26.3333C56.375 33.4574 50.6242 39.2083 43.5 39.2083C36.3758 39.2083 30.625 33.4574 30.625 26.3333C30.625 19.2091 36.3758 13.4583 43.5 13.4583ZM43.5 74.3999C32.7708 74.3999 23.2863 68.9066 17.75 60.5808C17.8787 52.0403 34.9167 47.3624 43.5 47.3624C52.0404 47.3624 69.1213 52.0403 69.25 60.5808C63.7138 68.9066 54.2292 74.3999 43.5 74.3999Z" fill="white"/>
</svg>
