<svg width="13" height="11" viewBox="0 0 13 11" fill="none" xmlns="http://www.w3.org/2000/svg">
<path d="M12.0714 10.5238H0.928571C0.682299 10.5238 0.446113 10.426 0.271972 10.2518C0.0978314 10.0777 0 9.84151 0 9.59524V0.928571C0 0.682299 0.0978314 0.446113 0.271972 0.271972C0.446113 0.0978312 0.682299 0 0.928571 0H12.0714C12.3177 0 12.5539 0.0978312 12.728 0.271972C12.9022 0.446113 13 0.682299 13 0.928571V9.59524C13 9.84151 12.9022 10.0777 12.728 10.2518C12.5539 10.426 12.3177 10.5238 12.0714 10.5238ZM0.928571 0.619048C0.846481 0.619048 0.767752 0.651658 0.709705 0.709705C0.651658 0.767752 0.619048 0.846481 0.619048 0.928571V9.59524C0.619048 9.67733 0.651658 9.75606 0.709705 9.81411C0.767752 9.87215 0.846481 9.90476 0.928571 9.90476H12.0714C12.1535 9.90476 12.2322 9.87215 12.2903 9.81411C12.3483 9.75606 12.381 9.67733 12.381 9.59524V0.928571C12.381 0.846481 12.3483 0.767752 12.2903 0.709705C12.2322 0.651658 12.1535 0.619048 12.0714 0.619048H0.928571Z" fill="white" fill-opacity="0.75"/>
<path d="M11.4524 9.28566H2.78572C2.70363 9.28566 2.6249 9.25305 2.56685 9.195C2.5088 9.13695 2.47619 9.05822 2.47619 8.97613C2.47619 8.89404 2.5088 8.81531 2.56685 8.75727C2.6249 8.69922 2.70363 8.66661 2.78572 8.66661H11.1429V1.85708H1.85715V8.97613C1.85715 9.05822 1.82454 9.13695 1.76649 9.195C1.70844 9.25305 1.62971 9.28566 1.54762 9.28566C1.46553 9.28566 1.3868 9.25305 1.32876 9.195C1.27071 9.13695 1.2381 9.05822 1.2381 8.97613V1.54756C1.2381 1.46547 1.27071 1.38674 1.32876 1.32869C1.3868 1.27065 1.46553 1.23804 1.54762 1.23804H11.4524C11.5345 1.23804 11.6132 1.27065 11.6713 1.32869C11.7293 1.38674 11.7619 1.46547 11.7619 1.54756V8.97613C11.7619 9.05822 11.7293 9.13695 11.6713 9.195C11.6132 9.25305 11.5345 9.28566 11.4524 9.28566Z" fill="white" fill-opacity="0.75"/>
<path d="M2.16667 3.71426H1.54762C1.46553 3.71426 1.3868 3.68165 1.32876 3.62361C1.27071 3.56556 1.2381 3.48683 1.2381 3.40474C1.2381 3.32265 1.27071 3.24392 1.32876 3.18587C1.3868 3.12783 1.46553 3.09521 1.54762 3.09521H2.16667C2.24876 3.09521 2.32749 3.12783 2.38554 3.18587C2.44358 3.24392 2.47619 3.32265 2.47619 3.40474C2.47619 3.48683 2.44358 3.56556 2.38554 3.62361C2.32749 3.68165 2.24876 3.71426 2.16667 3.71426ZM2.16667 7.42855H1.54762C1.46553 7.42855 1.3868 7.39594 1.32876 7.33789C1.27071 7.27984 1.2381 7.20112 1.2381 7.11902C1.2381 7.03693 1.27071 6.9582 1.32876 6.90016C1.3868 6.84211 1.46553 6.8095 1.54762 6.8095H2.16667C2.24876 6.8095 2.32749 6.84211 2.38554 6.90016C2.44358 6.9582 2.47619 7.03693 2.47619 7.11902C2.47619 7.20112 2.44358 7.27984 2.38554 7.33789C2.32749 7.39594 2.24876 7.42855 2.16667 7.42855ZM4.02381 7.42855C3.94172 7.42855 3.86299 7.39594 3.80495 7.33789C3.7469 7.27984 3.71429 7.20112 3.71429 7.11902V3.40474C3.71429 3.32265 3.7469 3.24392 3.80495 3.18587C3.86299 3.12783 3.94172 3.09521 4.02381 3.09521C4.1059 3.09521 4.18463 3.12783 4.24268 3.18587C4.30073 3.24392 4.33334 3.32265 4.33334 3.40474V7.11902C4.33334 7.20112 4.30073 7.27984 4.24268 7.33789C4.18463 7.39594 4.1059 7.42855 4.02381 7.42855ZM8.35715 4.95236C8.31655 4.95285 8.2763 4.94485 8.23899 4.92885C8.20167 4.91286 8.16812 4.88924 8.14048 4.8595C8.11087 4.83171 8.08727 4.79815 8.07114 4.76088C8.05501 4.72362 8.04668 4.68344 8.04668 4.64283C8.04668 4.60223 8.05501 4.56205 8.07114 4.52478C8.08727 4.48752 8.11087 4.45396 8.14048 4.42617L8.83381 3.71426C8.89128 3.6568 8.96921 3.62452 9.05048 3.62452C9.13175 3.62452 9.20968 3.6568 9.26715 3.71426C9.32461 3.77173 9.35689 3.84966 9.35689 3.93093C9.35689 4.0122 9.32461 4.09013 9.26715 4.1476L8.57381 4.84093C8.5479 4.87406 8.51511 4.90118 8.47771 4.92041C8.4403 4.93965 8.39917 4.95055 8.35715 4.95236Z" fill="white" fill-opacity="0.75"/>
<path d="M7.73809 7.42856C7.16346 7.42856 6.61236 7.20028 6.20603 6.79395C5.7997 6.38763 5.57143 5.83653 5.57143 5.26189C5.57143 4.68725 5.7997 4.13615 6.20603 3.72983C6.61236 3.3235 7.16346 3.09522 7.73809 3.09522C8.02443 3.08904 8.30907 3.14067 8.57499 3.24704C8.8409 3.3534 9.08263 3.51232 9.28571 3.71427C9.34318 3.77173 9.37546 3.84967 9.37546 3.93094C9.37546 4.0122 9.34318 4.09014 9.28571 4.1476C9.22825 4.20507 9.15031 4.23735 9.06905 4.23735C8.98778 4.23735 8.90984 4.20507 8.85238 4.1476C8.60414 3.8903 8.27446 3.72688 7.91937 3.68512C7.56429 3.64335 7.20569 3.72583 6.90453 3.91852C6.60336 4.11121 6.3782 4.40223 6.26731 4.74213C6.15641 5.08203 6.16663 5.44985 6.29622 5.78307C6.4258 6.11629 6.66677 6.39437 6.97816 6.57005C7.28956 6.74573 7.65218 6.80817 8.0044 6.74676C8.35662 6.68536 8.67672 6.5039 8.9103 6.23321C9.14388 5.96252 9.27653 5.61931 9.28571 5.26189C9.29209 5.18774 9.29209 5.11318 9.28571 5.03903C9.27422 4.95694 9.29581 4.87365 9.34573 4.80747C9.39565 4.7413 9.46981 4.69767 9.5519 4.68618C9.63399 4.67468 9.71729 4.69627 9.78346 4.74619C9.84963 4.79611 9.89327 4.87028 9.90476 4.95237C9.91397 5.0574 9.91397 5.16304 9.90476 5.26808C9.90312 5.84164 9.67412 6.39115 9.26797 6.79614C8.86182 7.20114 8.31166 7.42856 7.73809 7.42856Z" fill="white" fill-opacity="0.75"/>
</svg>
