<svg width="170" height="50" viewBox="0 0 170 50" fill="none" xmlns="http://www.w3.org/2000/svg">
<g clip-path="url(#clip0_5_120)">
<g clip-path="url(#clip1_5_120)">
<g clip-path="url(#clip2_5_120)">
<path d="M57.2268 1.69189C57.2268 0.750338 56.7667 -0.0129395 56.1991 -0.0129395C55.6315 -0.0129395 55.1714 0.750338 55.1714 1.69189V48.3081C55.1714 49.2497 55.6315 50.0129 56.1991 50.0129C56.7667 50.0129 57.2268 49.2497 57.2268 48.3081V1.69189Z" fill="white"/>
<g clip-path="url(#clip3_5_120)">
<g clip-path="url(#clip4_5_120)">
<g clip-path="url(#clip5_5_120)">
<g clip-path="url(#clip6_5_120)">
<path d="M71.7175 24.2917C70.1192 24.2917 68.5637 23.8905 67.0505 23.0875C65.5373 22.2806 64.2804 21.1898 63.2786 19.8162L65.2285 18.0776C65.9956 19.3011 66.9757 20.2715 68.1693 20.9882C69.3629 21.7094 70.6517 22.07 72.0371 22.07C73.5504 22.07 74.7011 21.7307 75.4894 21.0526C76.2776 20.3784 76.6721 19.4621 76.6721 18.303C76.6721 17.0363 76.2521 16.064 75.4127 15.3859C74.5688 14.7117 73.2307 14.1173 71.3978 13.6022C66.7948 12.4643 64.4933 10.3612 64.4933 7.29149C64.4933 5.38091 65.1115 3.91078 66.3473 2.88047C67.583 1.85015 69.2989 1.335 71.4937 1.335C73.092 1.335 74.5259 1.63572 75.7962 2.23652C77.0621 2.83732 78.1956 3.76074 79.1974 5.00549L77.3114 6.61535C76.5442 5.56379 75.7023 4.78461 74.7861 4.27783C73.87 3.77555 72.7723 3.52441 71.4937 3.52441C70.1511 3.52441 69.0535 3.83995 68.2013 4.47101C67.3491 5.10659 66.9226 5.97141 66.9226 7.06611C66.9226 8.18207 67.3171 9.06685 68.1054 9.71917C68.8936 10.376 70.2259 10.9298 72.101 11.3806C74.3175 11.9814 76.0392 12.8082 77.2667 13.8597C78.4897 14.9113 79.1015 16.3924 79.1015 18.303C79.1015 19.4833 78.8029 20.5246 78.2064 21.4261C77.61 22.3276 76.7533 23.0295 75.6364 23.5318C74.5157 24.0386 73.209 24.2917 71.7175 24.2917ZM100.071 20.4602L104.77 1.81796H107.039L101.222 23.7765H98.7283L94.1892 6.13239L89.5222 23.7765H87.0609L81.2432 1.81796H83.7045L88.3715 20.2992L93.2302 1.81796H95.1801L100.071 20.4602ZM116.117 23.7765H109.501V21.6515H111.61V3.94298H109.501V1.81796H116.117V3.94298H114.008V21.6515H116.117V23.7765ZM122.798 23.7765H120.401V1.81796H132.292V3.84639H122.798V11.5093H129.831V13.4734H122.798V23.7765ZM142.01 23.7765H139.644V3.81419H132.771V1.81796H148.882V3.81419H142.01V23.7765Z" fill="white"/>
<path d="M81.435 45.3487L86.1339 26.7065H88.4034L82.5857 48.665H80.0924L75.5533 31.0209L70.8864 48.665H68.425L62.6073 26.7065H65.0686L69.7356 45.1877L74.5943 26.7065H76.5442L81.435 45.3487ZM106.144 48.665H103.907L101.669 42.5153H92.6229L90.609 48.665H88.2116L95.9473 26.7065H98.1849L106.144 48.665ZM97.0341 29.8618L93.3581 40.5191H100.934L97.0341 29.8618ZM121.264 48.665H109.053V26.7065H111.451V46.6688H121.264V48.665ZM136.479 48.665H124.269V26.7065H126.666V46.6688H136.479V48.665ZM151.791 48.665H139.484V26.7065H151.695V28.7349H141.882V36.3978H149.553V38.3619H141.882V46.6688H151.791V48.665ZM162.755 48.665H160.39V28.7027H153.517V26.7065H169.628V28.7027H162.755V48.665Z" fill="white"/>
</g>
</g>
</g>
</g>
<g clip-path="url(#clip7_5_120)">
<g clip-path="url(#clip8_5_120)">
<path d="M25.0817 0.111504C11.4352 0.111504 0.372353 11.2546 0.372353 25C0.372353 38.7454 11.4352 49.8885 25.0817 49.8885C38.7281 49.8885 49.791 38.7454 49.791 25C49.791 11.2546 38.7281 0.111504 25.0817 0.111504ZM25.0817 7.15794C34.866 7.15794 42.7953 15.1442 42.7953 25C42.7953 34.8553 34.866 42.8421 25.0817 42.8421C15.2973 42.8421 7.36805 34.8553 7.36805 25C7.36805 15.1447 15.2973 7.15794 25.0817 7.15794ZM25.0817 10.1291C16.9251 10.1291 10.3178 16.7843 10.3178 25C10.3178 33.2157 16.9251 39.8709 25.0817 39.8709C33.2382 39.8709 39.8455 33.2157 39.8455 25C39.8455 16.7843 33.2382 10.1291 25.0817 10.1291ZM25.0817 14.9202C30.6057 14.9202 35.0889 19.4359 35.0889 25C35.0889 30.5641 30.6057 35.0798 25.0817 35.0798C19.5576 35.0798 15.0744 30.5641 15.0744 25C15.0744 19.4359 19.5576 14.9202 25.0817 14.9202Z" fill="white"/>
</g>
</g>
</g>
</g>
</g>
<defs>
<clipPath id="clip0_5_120">
<rect width="170" height="50" fill="white"/>
</clipPath>
<clipPath id="clip1_5_120">
<rect width="169.255" height="50.0259" fill="white" transform="translate(0.372353 -0.0129395)"/>
</clipPath>
<clipPath id="clip2_5_120">
<rect width="169.255" height="50.0259" fill="white" transform="translate(0.372353 -0.0129395)"/>
</clipPath>
<clipPath id="clip3_5_120">
<rect width="107.02" height="49.777" fill="white" transform="translate(62.6073 0.111504)"/>
</clipPath>
<clipPath id="clip4_5_120">
<rect width="107.02" height="49.777" fill="white" transform="translate(62.6073 0.111504)"/>
</clipPath>
<clipPath id="clip5_5_120">
<rect width="107.02" height="49.777" fill="white" transform="translate(62.6073 0.111504)"/>
</clipPath>
<clipPath id="clip6_5_120">
<rect width="107.02" height="49.777" fill="white" transform="translate(62.6073 0.111504)"/>
</clipPath>
<clipPath id="clip7_5_120">
<rect width="49.4186" height="49.777" fill="white" transform="translate(0.372353 0.111504)"/>
</clipPath>
<clipPath id="clip8_5_120">
<rect width="49.4186" height="49.777" fill="white" transform="translate(0.372353 0.111504)"/>
</clipPath>
</defs>
</svg>
